# Blender 5.1.1
# www.blender.org
mtllib hammer.mtl
o cube
v 0.250000 1.500000 0.250000
v 0.250000 1.500000 -0.250000
v 0.250000 1.000000 0.250000
v 0.250000 1.000000 -0.250000
v -0.250000 1.500000 -0.250000
v -0.250000 1.500000 0.250000
v -0.250000 1.000000 -0.250000
v -0.250000 1.000000 0.250000
v 0.062500 1.000000 0.062500
v 0.062500 1.000000 -0.062500
v 0.062500 0.000000 0.062500
v 0.062500 -0.000000 -0.062500
v -0.062500 1.000000 -0.062500
v -0.062500 1.000000 0.062500
v -0.062500 -0.000000 -0.062500
v -0.062500 0.000000 0.062500
v 0.068750 1.539271 0.097249
v 0.068750 1.636498 0.000022
v 0.068750 1.442044 0.000022
v 0.068750 1.539271 -0.097205
v -0.068750 1.636498 0.000022
v -0.068750 1.539271 0.097249
v -0.068750 1.539271 -0.097205
v -0.068750 1.442044 0.000022
v 0.093750 0.077665 -0.000000
v 0.093750 -0.054917 -0.132583
v 0.093750 -0.054917 0.132583
v 0.093750 -0.187500 0.000000
v -0.093750 -0.054917 -0.132583
v -0.093750 0.077665 -0.000000
v -0.093750 -0.187500 0.000000
v -0.093750 -0.054917 0.132583
vn -0.0000 -0.0000 -1.0000
vn 1.0000 -0.0000 -0.0000
vn -0.0000 -0.0000 1.0000
vn -1.0000 -0.0000 -0.0000
vn -0.0000 1.0000 -0.0000
vn -0.0000 -1.0000 -0.0000
vn -0.0000 0.7071 -0.7071
vn -0.0000 -0.7071 0.7071
vn -0.0000 0.7071 0.7071
vn -0.0000 -0.7071 -0.7071
vt 0.500000 0.500000
vt 0.750000 0.500000
vt 0.750000 0.750000
vt 0.500000 0.750000
vt 0.750000 1.000000
vt 0.500000 1.000000
vt 1.000000 0.750000
vt 1.000000 1.000000
vt 0.328125 0.000000
vt 0.375000 0.000000
vt 0.375000 0.359375
vt 0.328125 0.359375
vt 0.421875 0.000000
vt 0.468750 0.000000
vt 0.468750 0.359375
vt 0.421875 0.359375
vt 0.281250 0.000000
vt 0.281250 0.359375
vt 0.000000 0.937500
vt 0.062500 0.937500
vt 0.062500 1.000000
vt 0.000000 1.000000
vt 0.406250 0.593750
vt 0.500000 0.593750
vt 0.500000 0.687500
vt 0.406250 0.687500
vt 0.406250 0.500000
vt 0.498437 0.500000
vt 0.498437 0.593750
vt 0.312500 0.500000
vt 0.312500 0.593750
vt 0.218750 0.500000
vt 0.310937 0.500000
vt 0.310937 0.593750
vt 0.218750 0.593750
vt 0.312500 0.595312
vt 0.406250 0.595312
vt 0.312500 0.687500
vt 0.500000 0.781250
vt 0.406250 0.781250
vt 0.000000 0.906250
vt 0.093750 0.906250
vt 0.093750 1.000000
vt 0.000000 0.812500
vt 0.093750 0.812500
vt 0.187500 0.906250
vt 0.187500 1.000000
vt 0.187500 0.812500
vt 0.000000 0.718750
vt 0.093750 0.718750
vt 0.281250 0.906250
vt 0.281250 1.000000
s 1
usemtl Material.002
f 4/1/1 7/2/1 5/3/1 2/4/1
f 3/1/2 4/2/2 2/3/2 1/4/2
f 8/1/3 3/2/3 1/3/3 6/4/3
f 7/1/4 8/2/4 6/3/4 5/4/4
f 6/4/5 1/3/5 2/5/5 5/6/5
f 7/3/6 4/7/6 3/8/6 8/5/6
f 12/9/1 15/10/1 13/11/1 10/12/1
f 11/13/2 12/14/2 10/15/2 9/16/2
f 16/17/3 11/9/3 9/12/3 14/18/3
f 15/10/4 16/13/4 14/16/4 13/11/4
f 14/19/5 9/20/5 10/21/5 13/22/5
f 15/19/6 12/20/6 11/21/6 16/22/6
f 20/23/7 23/24/7 21/25/7 18/26/7
f 19/27/2 20/28/2 18/29/2 17/23/2
f 24/30/8 19/27/8 17/23/8 22/31/8
f 23/32/4 24/33/4 22/34/4 21/35/4
f 22/36/9 17/37/9 18/26/9 21/38/9
f 23/26/10 20/25/10 19/39/10 24/40/10
f 28/41/10 31/42/10 29/43/10 26/22/10
f 27/44/2 28/45/2 26/42/2 25/41/2
f 32/42/9 27/46/9 25/47/9 30/43/9
f 31/45/4 32/48/4 30/46/4 29/42/4
f 30/45/7 25/44/7 26/49/7 29/50/7
f 31/47/8 28/46/8 27/51/8 32/52/8
